<mxfile host="Electron" agent="Mozilla/5.0 (X11; Linux x86_64) AppleWebKit/537.36 (KHTML, like Gecko) draw.io/27.0.5 Chrome/134.0.6998.205 Electron/35.3.0 Safari/537.36" version="27.0.5">
  <diagram name="PÃ¡gina-1" id="tbhhrolYnf2YLyF_AGn1">
    <mxGraphModel dx="1678" dy="1029" grid="1" gridSize="10" guides="1" tooltips="1" connect="1" arrows="1" fold="1" page="1" pageScale="1" pageWidth="827" pageHeight="1169" math="0" shadow="0">
      <root>
        <mxCell id="0" />
        <mxCell id="1" parent="0" />
        <mxCell id="gUQwB867zqCJYkILIy9S-1" value="COB005 -&amp;nbsp;&lt;strong&gt;CALC FINAL BALANCE AFTER PAYMENTS&lt;/strong&gt;" style="text;html=1;align=left;verticalAlign=middle;whiteSpace=wrap;rounded=0;fontStyle=1" parent="1" vertex="1">
          <mxGeometry x="40" y="40" width="760" height="30" as="geometry" />
        </mxCell>
        <mxCell id="hJ2BFbXUZGXYHwbM8L2G-37" style="edgeStyle=orthogonalEdgeStyle;rounded=0;orthogonalLoop=1;jettySize=auto;html=1;exitX=0.5;exitY=1;exitDx=0;exitDy=0;exitPerimeter=0;entryX=0.5;entryY=0;entryDx=0;entryDy=0;" parent="1" source="gUQwB867zqCJYkILIy9S-3" target="JN-5MCGue80G1mtPtgCy-2" edge="1">
          <mxGeometry relative="1" as="geometry">
            <mxPoint x="134.97" y="180" as="targetPoint" />
          </mxGeometry>
        </mxCell>
        <mxCell id="gUQwB867zqCJYkILIy9S-3" value="Start" style="strokeWidth=2;html=1;shape=mxgraph.flowchart.terminator;whiteSpace=wrap;" parent="1" vertex="1">
          <mxGeometry x="84.97" y="80" width="100" height="60" as="geometry" />
        </mxCell>
        <mxCell id="0eGiHp5goSOmYRr4eiXb-60" value="Stop" style="strokeWidth=2;html=1;shape=mxgraph.flowchart.terminator;whiteSpace=wrap;" parent="1" vertex="1">
          <mxGeometry x="84.97000000000011" y="830" width="100" height="60" as="geometry" />
        </mxCell>
        <mxCell id="TE1XiFQLw84z4zzrYZcN-2" style="edgeStyle=orthogonalEdgeStyle;rounded=0;orthogonalLoop=1;jettySize=auto;html=1;exitX=0.5;exitY=1;exitDx=0;exitDy=0;entryX=0.5;entryY=0;entryDx=0;entryDy=0;" edge="1" parent="1" source="JN-5MCGue80G1mtPtgCy-2" target="TE1XiFQLw84z4zzrYZcN-1">
          <mxGeometry relative="1" as="geometry" />
        </mxCell>
        <mxCell id="JN-5MCGue80G1mtPtgCy-2" value="&lt;div&gt;&lt;br&gt;&lt;/div&gt;&lt;div&gt;WS-SALDO-INICIAL&lt;div&gt;WS-VALORES-PAGOS&lt;/div&gt;&lt;div&gt;WS-VALOR-PAGO&lt;/div&gt;&lt;div&gt;WS-SALDO-FINAL&lt;/div&gt;&lt;/div&gt;" style="shape=internalStorage;whiteSpace=wrap;html=1;dx=15;dy=15;rounded=1;arcSize=8;strokeWidth=2;" parent="1" vertex="1">
          <mxGeometry x="49.97" y="180" width="170" height="80" as="geometry" />
        </mxCell>
        <mxCell id="TE1XiFQLw84z4zzrYZcN-17" style="edgeStyle=orthogonalEdgeStyle;rounded=0;orthogonalLoop=1;jettySize=auto;html=1;exitX=0.5;exitY=1;exitDx=0;exitDy=0;entryX=0.5;entryY=0;entryDx=0;entryDy=0;" edge="1" parent="1" source="TE1XiFQLw84z4zzrYZcN-1" target="TE1XiFQLw84z4zzrYZcN-4">
          <mxGeometry relative="1" as="geometry" />
        </mxCell>
        <mxCell id="TE1XiFQLw84z4zzrYZcN-1" value="&lt;div&gt;WS-VALORES-PAGOS =0&lt;/div&gt;WS-VALOR-PAGO = 1" style="rounded=1;whiteSpace=wrap;html=1;absoluteArcSize=1;arcSize=14;strokeWidth=2;" vertex="1" parent="1">
          <mxGeometry x="59.97" y="290" width="150" height="40" as="geometry" />
        </mxCell>
        <mxCell id="TE1XiFQLw84z4zzrYZcN-8" style="edgeStyle=orthogonalEdgeStyle;rounded=0;orthogonalLoop=1;jettySize=auto;html=1;exitX=0.5;exitY=1;exitDx=0;exitDy=0;entryX=0.5;entryY=0;entryDx=0;entryDy=0;" edge="1" parent="1" source="TE1XiFQLw84z4zzrYZcN-4" target="TE1XiFQLw84z4zzrYZcN-5">
          <mxGeometry relative="1" as="geometry" />
        </mxCell>
        <mxCell id="TE1XiFQLw84z4zzrYZcN-13" style="edgeStyle=orthogonalEdgeStyle;rounded=0;orthogonalLoop=1;jettySize=auto;html=1;exitX=1;exitY=0.5;exitDx=0;exitDy=0;entryX=1;entryY=0.5;entryDx=0;entryDy=0;" edge="1" parent="1" source="TE1XiFQLw84z4zzrYZcN-4" target="TE1XiFQLw84z4zzrYZcN-12">
          <mxGeometry relative="1" as="geometry" />
        </mxCell>
        <mxCell id="TE1XiFQLw84z4zzrYZcN-4" value="WS-VALOR-PAGO &amp;lt;&amp;gt; 0" style="shape=hexagon;perimeter=hexagonPerimeter2;whiteSpace=wrap;html=1;fixedSize=1;" vertex="1" parent="1">
          <mxGeometry x="64.97" y="360" width="140" height="60" as="geometry" />
        </mxCell>
        <mxCell id="TE1XiFQLw84z4zzrYZcN-9" style="edgeStyle=orthogonalEdgeStyle;rounded=0;orthogonalLoop=1;jettySize=auto;html=1;exitX=0.5;exitY=1;exitDx=0;exitDy=0;entryX=0.5;entryY=0;entryDx=0;entryDy=0;" edge="1" parent="1" source="TE1XiFQLw84z4zzrYZcN-5" target="TE1XiFQLw84z4zzrYZcN-6">
          <mxGeometry relative="1" as="geometry" />
        </mxCell>
        <mxCell id="TE1XiFQLw84z4zzrYZcN-5" value="&lt;div&gt;&lt;br&gt;&lt;/div&gt;WS-VALOR-PAGO" style="html=1;strokeWidth=2;shape=manualInput;whiteSpace=wrap;rounded=1;size=26;arcSize=11;" vertex="1" parent="1">
          <mxGeometry x="76.22" y="450" width="117.5" height="60" as="geometry" />
        </mxCell>
        <mxCell id="TE1XiFQLw84z4zzrYZcN-7" style="edgeStyle=orthogonalEdgeStyle;rounded=0;orthogonalLoop=1;jettySize=auto;html=1;exitX=0;exitY=0.5;exitDx=0;exitDy=0;entryX=0;entryY=0.5;entryDx=0;entryDy=0;" edge="1" parent="1" source="TE1XiFQLw84z4zzrYZcN-6" target="TE1XiFQLw84z4zzrYZcN-4">
          <mxGeometry relative="1" as="geometry" />
        </mxCell>
        <mxCell id="TE1XiFQLw84z4zzrYZcN-6" value="WS-VALORES-PAGOS = WS-VALORES-PAGOS +&amp;nbsp;&lt;div&gt;WS-VALOR-PAGO&lt;/div&gt;" style="rounded=1;whiteSpace=wrap;html=1;absoluteArcSize=1;arcSize=14;strokeWidth=2;" vertex="1" parent="1">
          <mxGeometry x="59.97" y="550" width="150" height="60" as="geometry" />
        </mxCell>
        <mxCell id="TE1XiFQLw84z4zzrYZcN-15" style="edgeStyle=orthogonalEdgeStyle;rounded=0;orthogonalLoop=1;jettySize=auto;html=1;exitX=0.5;exitY=1;exitDx=0;exitDy=0;" edge="1" parent="1" source="TE1XiFQLw84z4zzrYZcN-12" target="TE1XiFQLw84z4zzrYZcN-14">
          <mxGeometry relative="1" as="geometry" />
        </mxCell>
        <mxCell id="TE1XiFQLw84z4zzrYZcN-12" value="WS-SALDO-FINAL =&lt;div&gt;WS-SALDO-INICIAL -&amp;nbsp;&lt;/div&gt;&lt;div&gt;WS-VALORES-PAGOS&lt;/div&gt;" style="rounded=1;whiteSpace=wrap;html=1;absoluteArcSize=1;arcSize=14;strokeWidth=2;" vertex="1" parent="1">
          <mxGeometry x="59.97" y="640" width="150" height="60" as="geometry" />
        </mxCell>
        <mxCell id="TE1XiFQLw84z4zzrYZcN-14" value="&lt;div&gt;&lt;span style=&quot;background-color: transparent; color: light-dark(rgb(0, 0, 0), rgb(255, 255, 255));&quot;&gt;WS-SALDO-INICIAL&lt;/span&gt;&lt;/div&gt;&lt;div&gt;WS-VALORES-PAGOS&lt;/div&gt;&lt;div&gt;&lt;span style=&quot;background-color: transparent; color: light-dark(rgb(0, 0, 0), rgb(255, 255, 255));&quot;&gt;WS-SALDO-FINAL&lt;/span&gt;&lt;/div&gt;" style="strokeWidth=2;html=1;shape=mxgraph.flowchart.display;whiteSpace=wrap;" vertex="1" parent="1">
          <mxGeometry x="64.97" y="730" width="140" height="70" as="geometry" />
        </mxCell>
        <mxCell id="TE1XiFQLw84z4zzrYZcN-16" style="edgeStyle=orthogonalEdgeStyle;rounded=0;orthogonalLoop=1;jettySize=auto;html=1;exitX=0.5;exitY=1;exitDx=0;exitDy=0;exitPerimeter=0;entryX=0.5;entryY=0;entryDx=0;entryDy=0;entryPerimeter=0;" edge="1" parent="1" source="TE1XiFQLw84z4zzrYZcN-14" target="0eGiHp5goSOmYRr4eiXb-60">
          <mxGeometry relative="1" as="geometry" />
        </mxCell>
      </root>
    </mxGraphModel>
  </diagram>
</mxfile>
